<?xml version="1.0" encoding="UTF-8" standalone="no"?>
<!DOCTYPE svg PUBLIC "-//W3C//DTD SVG 1.1//EN"
 "http://www.w3.org/Graphics/SVG/1.1/DTD/svg11.dtd">
<!-- Generated by graphviz version 2.42.3 (20191010.1750)
 -->
<!-- Title: finite_state_machine Pages: 1 -->
<svg width="436pt" height="169pt"
 viewBox="0.00 0.00 436.00 169.00" xmlns="http://www.w3.org/2000/svg" xmlns:xlink="http://www.w3.org/1999/xlink">
<g id="graph0" class="graph" transform="scale(1 1) rotate(0) translate(4 165)">
<title>finite_state_machine</title>
<polygon fill="white" stroke="transparent" points="-4,4 -4,-165 432,-165 432,4 -4,4"/>
<!-- 0 -->
<g id="node1" class="node">
<title>0</title>
<ellipse fill="none" stroke="black" cx="22" cy="-80" rx="18" ry="18"/>
<ellipse fill="none" stroke="black" cx="22" cy="-80" rx="22" ry="22"/>
<text text-anchor="middle" x="22" y="-76.3" font-family="Helvetica,Arial,sans-serif" font-size="14.00">0</text>
</g>
<!-- 1 -->
<g id="node2" class="node">
<title>1</title>
<ellipse fill="none" stroke="black" cx="214" cy="-139" rx="18" ry="18"/>
<ellipse fill="none" stroke="black" cx="214" cy="-139" rx="22" ry="22"/>
<text text-anchor="middle" x="214" y="-135.3" font-family="Helvetica,Arial,sans-serif" font-size="14.00">1</text>
</g>
<!-- 0&#45;&gt;1 -->
<g id="edge3" class="edge">
<title>0&#45;&gt;1</title>
<path fill="none" stroke="black" d="M41.84,-89.72C48.18,-92.84 55.33,-96.21 62,-99 103.24,-116.26 114.49,-118.76 158,-129 165.75,-130.82 174.18,-132.51 182.06,-133.95"/>
<polygon fill="black" stroke="black" points="181.55,-137.41 192,-135.7 182.76,-130.52 181.55,-137.41"/>
<text text-anchor="middle" x="118" y="-127.8" font-family="Helvetica,Arial,sans-serif" font-size="14.00">7</text>
</g>
<!-- 2 -->
<g id="node3" class="node">
<title>2</title>
<ellipse fill="none" stroke="black" cx="214" cy="-22" rx="18" ry="18"/>
<ellipse fill="none" stroke="black" cx="214" cy="-22" rx="22" ry="22"/>
<text text-anchor="middle" x="214" y="-18.3" font-family="Helvetica,Arial,sans-serif" font-size="14.00">2</text>
</g>
<!-- 0&#45;&gt;2 -->
<g id="edge1" class="edge">
<title>0&#45;&gt;2</title>
<path fill="none" stroke="black" d="M39.54,-66.42C53.63,-55.67 74.9,-41.28 96,-34 123.79,-24.41 157.32,-21.81 181.35,-21.37"/>
<polygon fill="black" stroke="black" points="181.69,-24.87 191.67,-21.31 181.64,-17.87 181.69,-24.87"/>
<text text-anchor="middle" x="118" y="-37.8" font-family="Helvetica,Arial,sans-serif" font-size="14.00">8</text>
</g>
<!-- 3 -->
<g id="node4" class="node">
<title>3</title>
<ellipse fill="none" stroke="black" cx="118" cy="-80" rx="18" ry="18"/>
<ellipse fill="none" stroke="black" cx="118" cy="-80" rx="22" ry="22"/>
<text text-anchor="middle" x="118" y="-76.3" font-family="Helvetica,Arial,sans-serif" font-size="14.00">3</text>
</g>
<!-- 0&#45;&gt;3 -->
<g id="edge2" class="edge">
<title>0&#45;&gt;3</title>
<path fill="none" stroke="black" d="M44.33,-80C56.47,-80 71.9,-80 85.42,-80"/>
<polygon fill="black" stroke="black" points="85.75,-83.5 95.75,-80 85.75,-76.5 85.75,-83.5"/>
<text text-anchor="middle" x="70" y="-83.8" font-family="Helvetica,Arial,sans-serif" font-size="14.00">10</text>
</g>
<!-- 4 -->
<g id="node5" class="node">
<title>4</title>
<ellipse fill="none" stroke="black" cx="310" cy="-83" rx="18" ry="18"/>
<ellipse fill="none" stroke="black" cx="310" cy="-83" rx="22" ry="22"/>
<text text-anchor="middle" x="310" y="-79.3" font-family="Helvetica,Arial,sans-serif" font-size="14.00">4</text>
</g>
<!-- 1&#45;&gt;4 -->
<g id="edge10" class="edge">
<title>1&#45;&gt;4</title>
<path fill="none" stroke="black" d="M232.73,-127.34C239.35,-123.06 246.97,-118.23 254,-114 262.85,-108.67 272.64,-103.07 281.48,-98.11"/>
<polygon fill="black" stroke="black" points="283.23,-101.14 290.26,-93.21 279.82,-95.02 283.23,-101.14"/>
<text text-anchor="middle" x="262" y="-117.8" font-family="Helvetica,Arial,sans-serif" font-size="14.00">6</text>
</g>
<!-- 5 -->
<g id="node6" class="node">
<title>5</title>
<ellipse fill="none" stroke="black" cx="406" cy="-114" rx="18" ry="18"/>
<ellipse fill="none" stroke="black" cx="406" cy="-114" rx="22" ry="22"/>
<text text-anchor="middle" x="406" y="-110.3" font-family="Helvetica,Arial,sans-serif" font-size="14.00">5</text>
</g>
<!-- 1&#45;&gt;5 -->
<g id="edge9" class="edge">
<title>1&#45;&gt;5</title>
<path fill="none" stroke="black" d="M236.06,-136.23C269.53,-131.82 335.05,-123.2 373.93,-118.09"/>
<polygon fill="black" stroke="black" points="374.68,-121.52 384.14,-116.75 373.76,-114.58 374.68,-121.52"/>
<text text-anchor="middle" x="310" y="-132.8" font-family="Helvetica,Arial,sans-serif" font-size="14.00">21</text>
</g>
<!-- 2&#45;&gt;4 -->
<g id="edge4" class="edge">
<title>2&#45;&gt;4</title>
<path fill="none" stroke="black" d="M234.38,-31.02C245.17,-36.33 258.67,-43.48 270,-51 275.05,-54.35 280.22,-58.23 285.07,-62.1"/>
<polygon fill="black" stroke="black" points="282.92,-64.87 292.87,-68.53 287.38,-59.47 282.92,-64.87"/>
<text text-anchor="middle" x="262" y="-54.8" font-family="Helvetica,Arial,sans-serif" font-size="14.00">12</text>
</g>
<!-- 3&#45;&gt;1 -->
<g id="edge7" class="edge">
<title>3&#45;&gt;1</title>
<path fill="none" stroke="black" d="M137.38,-91.26C148.09,-97.84 161.84,-106.34 174,-114 178.12,-116.59 182.48,-119.36 186.72,-122.07"/>
<polygon fill="black" stroke="black" points="184.87,-125.04 195.18,-127.49 188.64,-119.15 184.87,-125.04"/>
<text text-anchor="middle" x="166" y="-117.8" font-family="Helvetica,Arial,sans-serif" font-size="14.00">11</text>
</g>
<!-- 3&#45;&gt;2 -->
<g id="edge6" class="edge">
<title>3&#45;&gt;2</title>
<path fill="none" stroke="black" d="M135.68,-66.71C142.45,-61.56 150.43,-55.77 158,-51 166.45,-45.67 175.98,-40.41 184.7,-35.86"/>
<polygon fill="black" stroke="black" points="186.45,-38.9 193.76,-31.23 183.26,-32.66 186.45,-38.9"/>
<text text-anchor="middle" x="166" y="-54.8" font-family="Helvetica,Arial,sans-serif" font-size="14.00">2</text>
</g>
<!-- 3&#45;&gt;4 -->
<g id="edge5" class="edge">
<title>3&#45;&gt;4</title>
<path fill="none" stroke="black" d="M140.06,-80.33C173.44,-80.86 238.71,-81.89 277.62,-82.5"/>
<polygon fill="black" stroke="black" points="277.79,-86.01 287.85,-82.67 277.9,-79.01 277.79,-86.01"/>
<text text-anchor="middle" x="214" y="-84.8" font-family="Helvetica,Arial,sans-serif" font-size="14.00">5</text>
</g>
<!-- 4&#45;&gt;5 -->
<g id="edge8" class="edge">
<title>4&#45;&gt;5</title>
<path fill="none" stroke="black" d="M331.4,-89.73C344.17,-93.94 360.85,-99.44 375.11,-104.14"/>
<polygon fill="black" stroke="black" points="374.37,-107.58 384.97,-107.39 376.57,-100.94 374.37,-107.58"/>
<text text-anchor="middle" x="358" y="-103.8" font-family="Helvetica,Arial,sans-serif" font-size="14.00">14</text>
</g>
</g>
</svg>
